<svg xmlns="http://www.w3.org/2000/svg" width="408.411" height="367.195" viewBox="0 0 408.411 367.195">
  <g id="react" transform="translate(-0.754 -0.785)">
    <path id="Path_122" data-name="Path 122" d="M.754,183.722c0,30.844,30.118,59.636,77.6,75.867-9.482,47.734-1.7,86.209,24.3,101.2,26.719,15.41,66.524,4.743,104.306-28.284C243.785,364.2,281,376.671,306.977,361.636c26.694-15.453,34.812-56.537,25.068-105.762,49.456-16.351,77.12-40.9,77.12-72.152,0-30.128-30.173-56.192-77.016-72.318,10.49-51.259,1.6-88.8-25.47-104.41-26.1-15.05-63.752-1.933-101.121,30.589C166.68,3.065,129.4-7.473,102.357,8.18c-26.075,15.094-33.515,54.269-24,102.885C32.474,127.062.754,153.716.754,183.722Z" transform="translate(0 0)" fill="none"/>
    <path id="Path_123" data-name="Path 123" d="M313.461,119.109q-5.791-1.986-11.676-3.679.976-3.965,1.8-7.963c8.838-42.9,3.06-77.467-16.675-88.845-18.921-10.912-49.866.466-81.119,27.662q-4.619,4.029-9.031,8.288-2.953-2.831-6.01-5.551C158,19.938,125.169,7.684,105.455,19.095c-18.9,10.943-24.5,43.437-16.545,84.1q1.187,6.04,2.681,12.013c-4.645,1.319-9.132,2.726-13.424,4.222-38.4,13.387-62.924,34.371-62.924,56.134,0,22.479,26.325,45.026,66.324,58.7q4.865,1.655,9.808,3.066-1.605,6.433-2.849,12.949c-7.586,39.954-1.661,71.677,17.192,82.552,19.473,11.228,52.155-.313,83.979-28.131q3.773-3.3,7.569-6.976,4.777,4.609,9.8,8.946C237.9,333.188,268.34,343.9,287.177,333c19.455-11.262,25.776-45.342,17.567-86.806q-.939-4.751-2.175-9.7,3.443-1.016,6.745-2.106c41.581-13.776,68.634-36.048,68.634-58.827,0-21.842-25.314-42.966-64.487-56.452Z" transform="translate(8.769 8.309)" fill="#aaa"/>
    <path id="Path_124" data-name="Path 124" d="M298.6,213.853c-1.982.657-4.018,1.291-6.092,1.905a363.672,363.672,0,0,0-18.367-45.949,363.516,363.516,0,0,0,17.652-45.28c3.71,1.075,7.312,2.207,10.782,3.4,33.565,11.553,54.038,28.637,54.038,41.8,0,14.021-22.112,32.224-58.012,44.121Zm-14.9,29.518c3.629,18.335,4.148,34.912,1.743,47.87-2.161,11.644-6.5,19.407-11.875,22.516-11.431,6.617-35.876-1.984-62.237-24.669q-4.534-3.9-9.121-8.315a364.118,364.118,0,0,0,30.4-38.605A361.7,361.7,0,0,0,281.74,234.6q1.108,4.479,1.963,8.774ZM133.055,312.614c-11.167,3.944-20.062,4.056-25.438.957-11.442-6.6-16.2-32.072-9.71-66.239q1.157-6.057,2.649-12.042a364.352,364.352,0,0,0,48.878,7.076,377.046,377.046,0,0,0,31.134,38.467q-3.376,3.266-6.91,6.363c-14.073,12.3-28.174,21.028-40.6,25.418ZM80.737,213.766c-17.686-6.045-32.292-13.9-42.3-22.473-9-7.7-13.538-15.354-13.538-21.561,0-13.206,19.691-30.053,52.532-41.5q6.183-2.146,12.484-3.928a371.6,371.6,0,0,0,17.678,45.808,377.25,377.25,0,0,0-17.9,46.459q-4.511-1.291-8.954-2.8ZM98.275,94.387c-6.817-34.838-2.291-61.116,9.1-67.711,12.135-7.024,38.966,2.992,67.247,28.1,1.807,1.605,3.623,3.286,5.442,5.024a371.306,371.306,0,0,0-30.9,38.236,378.6,378.6,0,0,0-48.4,7.522q-1.387-5.555-2.493-11.175ZM254.729,133.02q-5.319-9.187-11.029-18.139c11.574,1.461,22.661,3.4,33.072,5.78a330.517,330.517,0,0,1-11.609,31.232q-5.028-9.54-10.434-18.874Zm-63.8-62.144a331.365,331.365,0,0,1,21.344,25.767q-21.422-1.012-42.868-.01C176.45,87.34,183.669,78.708,190.927,70.876Zm-64.211,62.25q-5.337,9.257-10.238,18.757c-4.512-10.7-8.373-21.224-11.525-31.385,10.349-2.316,21.384-4.209,32.883-5.645q-5.773,9-11.119,18.274Zm11.45,92.593a329.919,329.919,0,0,1-33.427-5.374c3.2-10.341,7.148-21.089,11.757-32.021q4.92,9.5,10.283,18.768,5.471,9.448,11.387,18.627Zm53.19,43.965c-7.344-7.925-14.668-16.689-21.823-26.117q10.416.409,21.221.411,11.09,0,21.895-.486A329.507,329.507,0,0,1,191.356,269.683Zm73.955-81.917a329.066,329.066,0,0,1,12.18,31.907,328.832,328.832,0,0,1-33.834,5.767q5.751-9.117,11.135-18.457,5.473-9.491,10.519-19.218Zm-23.942,11.477q-8.241,14.317-17.4,28.075c-10.761.769-21.882,1.165-33.215,1.165-11.286,0-22.266-.352-32.839-1.037q-9.392-13.719-17.726-28.118Q131.9,185.016,124.714,170.1q7.161-14.905,15.428-29.24v0q8.259-14.328,17.587-28c10.787-.815,21.847-1.242,33.027-1.242,11.23,0,22.3.43,33.088,1.252q9.227,13.639,17.476,27.9,8.29,14.293,15.636,29.1-7.267,14.952-15.585,29.359ZM273.334,26.216c12.145,7.005,16.869,35.252,9.238,72.3q-.75,3.62-1.631,7.211a371.187,371.187,0,0,0-48.5-7.662A363.988,363.988,0,0,0,201.785,59.8q4.075-3.928,8.341-7.65c26.778-23.3,51.8-32.505,63.208-25.929Z" transform="translate(14.61 14.138)" fill="#fff"/>
    <path id="Path_125" data-name="Path 125" d="M140.432,94.665a32.389,32.389,0,1,1-32.388,32.388,32.388,32.388,0,0,1,32.388-32.388" transform="translate(64.932 56.817)" fill="#aaa"/>
  </g>
</svg>
